<svg width="84" height="50" xmlns="http://www.w3.org/2000/svg">
  <path 
        d="M6.672 31.8h3.364v2h-6v-.02H3v3.061L5.517 40h5.81a7 7 0 1 1 13.42 0h32.289v2H23.782a6.992 6.992 0 0 1-5.746 3 6.992 6.992 0 0 1-5.745-3H4.553L1 37.54v-5.76h2.69l4.128-3.684 14.92-4.028 16.146-9.241.994 1.736L26.884 24h32.91l8.514-3.045 10.325 6.529 1.269 7.577h2.272v4.317L79.552 42h-6.77a7 7 0 1 1 .965-2h4.977l1.45-1.45V37.06H78.21L77.11 30.5h-4.074v-2h3.462l-8.435-5.334L60.142 26H23.256l-14.46 3.904L6.672 31.8zm15.955-7.668l.236-.097-.124.033-.112.064zm37.004-.074l.337-.058h-.173l-.164.058zM18.036 43a5 5 0 1 0 0-10 5 5 0 0 0 0 10zm49 0a5 5 0 1 0 0-10 5 5 0 0 0 0 10zm-22-12.5v-2h5.5v2h-5.5z"
        fill="#ff304f"
        fill-rule="evenodd">    
  </path>
</svg>