<svg width="84" height="50" xmlns="http://www.w3.org/2000/svg">
  <path 
        d="M2.376 34.459H2v1.886l2.132 3.074h8.012A7 7 0 1 1 25.71 40l32.296.001v2h-33.26A6.992 6.992 0 0 1 19 45a6.998 6.998 0 0 1-6.11-3.58H3.085L0 36.97V32.46h1.7v-2.863l25.471-5.51 9.094-9.187L57.068 16.2l.193.032 10.198 2.693L74.95 24h4.483v4.732l2.144 6.33H84v4.32L81.355 42h-7.61a7 7 0 1 1 .965-2h5.822L82 38.547V37.06h-1.857L79.106 34h-3.824v-2h3.146l-.339-1h-3.807v-2h3.15v-3h-3.095l-7.718-5.228-9.774-2.582-19.798-1.238-8.872 8.963L3.7 31.21v1.29h4.28v2H2.376v-.041zM19 43a5 5 0 1 0 0-10 5 5 0 0 0 0 10zm49 0a5 5 0 1 0 0-10 5 5 0 0 0 0 10zM56.92 19.77L59.53 26H30.683l7.281-7.724 18.957 1.495zM56.525 24l-.977-2.331-16.785-1.324L35.317 24h21.207zm3.456 5.5v2h-5.604v-2h5.604z"
        fill="#ff304f"
        fill-rule="evenodd">
  </path>
</svg>