<svg width="84" height="50" xmlns="http://www.w3.org/2000/svg">
  <path 
        d="M66.002 17h6.193l5.082 7.09H50.998V17h15.004zM5.245 30.5l-.488 1.446H2v3.013L3.364 37h7.707a7.002 7.002 0 0 1 13.858 0h34.13v2H24.93a7.002 7.002 0 0 1-13.858 0H2.296L0 35.566v-5.62h3.32l1.11-3.292 18.663-4.408 14.183-9.168H74.19L81.9 23.675V31h1.945v4.582L81.415 39H75.93A7.002 7.002 0 0 1 62 38a7 7 0 0 1 13.93-1h4.453l1.46-2.056V33H79.9v-8.675l-6.727-9.247H37.866l-13.977 9.035-17.918 4.233-.052.154H12v2H5.245zM18 43a5 5 0 1 0 0-10 5 5 0 0 0 0 10zm51 0a5 5 0 1 0 0-10 5 5 0 0 0 0 10zM48.98 26.5v2h-5.604v-2h5.604zm17 0v2h-5.604v-2h5.604zm-38.47-2.413l10.82-7.09h10.69v7.09H27.51zm19.51-2v-3.09h-8.094l-4.715 3.09h12.81zm16.963.003l.012-3.09H52.998v3.09h10.985zM65.998 19v3.09h7.385L71.168 19h-5.17z"
        fill="#ff304f"
        fill-rule="evenodd">    
  </path>
</svg>