<svg width="84" height="50" xmlns="http://www.w3.org/2000/svg">
  <path 
        d="M15.479 31.5v1.933H13v1.97l4.33 1.512A6.002 6.002 0 0 1 28.875 38H53v2H28.875a6.002 6.002 0 0 1-11.916-1.096L11 36.823v-5.39h2.479v-3.625l13.986-2.7 8.994-9.093h28.465l6.933 10.69v4.994l1.263 1.905v4.034l-5.162 1.331V39a6 6 0 1 1-.344-2.008l3.506-.904v-1.88L69.857 32.3v-5.005l-6.02-9.28H37.294l-8.843 8.94-12.972 2.503v.041h5.5v2h-5.5zm7.48 11.5a4 4 0 1 0 0-8 4 4 0 0 0 0 8zm39 0a4 4 0 1 0 0-8 4 4 0 0 0 0 8zM48.93 20.081v7.32H31.002l7.344-7.32H48.93zm-2 5.32v-3.32h-7.758l-3.33 3.32H46.93zM51 20.08h11.511l4.59 7.32H51v-7.32zm2 5.32h10.486l-2.081-3.32H53v3.32zM48.98 29.5v2h-5.604v-2h5.604z"
        fill="#ff304f"
        fill-rule="evenodd">
  </path>
</svg>