<svg width="31" height="29" viewBox="0 0 31 29" fill="none" xmlns="http://www.w3.org/2000/svg">
<path d="M9.33341 13.293L14.6667 2.41797C15.7276 2.41797 16.745 2.79989 17.4952 3.47971C18.2453 4.15953 18.6667 5.08156 18.6667 6.04297V10.8763H26.2134C26.6 10.8723 26.9828 10.9446 27.3355 11.088C27.6882 11.2315 28.0022 11.4427 28.2559 11.707C28.5096 11.9714 28.6968 12.2826 28.8045 12.619C28.9123 12.9555 28.9381 13.3091 28.8801 13.6555L27.0401 24.5305C26.9437 25.1067 26.6207 25.632 26.1306 26.0095C25.6406 26.387 25.0165 26.5912 24.3734 26.5846H9.33341M9.33341 13.293V26.5846M9.33341 13.293H5.33341C4.62617 13.293 3.94789 13.5476 3.4478 14.0008C2.9477 14.454 2.66675 15.0687 2.66675 15.7096V24.168C2.66675 24.8089 2.9477 25.4236 3.4478 25.8768C3.94789 26.33 4.62617 26.5846 5.33341 26.5846H9.33341" stroke="#1E1E1E" stroke-width="4" stroke-linecap="round" stroke-linejoin="round"/>
</svg>
