<svg width="84" height="50" xmlns="http://www.w3.org/2000/svg">
  <path 
        d="M7.264 31.5l-1.438 1.651H4v2.22L5.121 37h7.053a6.503 6.503 0 0 1 12.652 0h32.265v2H24.98a6.5 6.5 0 0 1-12.962 0H4.07L2 35.994V31.15h2.915l3.524-4.045 17.115-3.776 10.849-8.64H62.29l8.584 8.566h10.519l.105 7.43H83v5.741L80.879 39H72.98a6.5 6.5 0 1 1-.155-2h7.11L81 35.709v-3.022h-1.474L79.474 29H72.5v-2h6.946l-.025-1.744h-9.375l-8.584-8.566h-24.36l-10.665 8.493-16.923 3.734-.508.583H13v2H7.264zM18.5 43a4.5 4.5 0 1 0 0-9 4.5 4.5 0 0 0 0 9zm48 0a4.5 4.5 0 1 0 0-9 4.5 4.5 0 0 0 0 9zM46.919 18v7.38H29.004L38.745 18h8.174zm-2 5.38V20h-5.502l-4.461 3.38h9.963zM49 18h11.489l6.957 7.38H49V18zm2 5.38h11.812L59.626 20H51v3.38zm-4.02 4.12v2h-5.604v-2h5.604zm18 0v2h-5.604v-2h5.604z"
        fill="#ff304f"
        fill-rule="evenodd">    
  </path>
</svg>