<svg width="84" height="50" xmlns="http://www.w3.org/2000/svg">
  <path 
        d="M71.974 37.395a7 7 0 1 1-.466-1.976l3.995-1.712v-2.759L74.634 29h-3.352v-2h3.178v-1h-3.178v-2h3.178v-5.51L67.277 11h-31.06L25.612 21.99 9.97 25.084V26h5.01v2H9.97v1.928H7v3.199L9.743 37h2.328a7.002 7.002 0 0 1 13.858 0h29.72v2H25.93a7.002 7.002 0 0 1-13.858 0H8.708L5 33.763v-5.835h2.969v-4.486l16.64-3.293L35.368 9H68.13l8.33 8.686v10.497l1.043 2.34v4.503l-5.529 2.369zM50 13v9H28.678l8.513-9H50zm-2 7v-5h-9.948l-4.73 5H48zm4.997-7H65.77l4.702 4.521-.03 4.479H52.997v-9zm2 7h13.458l.01-1.633L64.965 15h-9.967v5zm-5.017 5v2h-5.604v-2h5.604zm18 0v2h-5.604v-2h5.604zM19 43a5 5 0 1 0 0-10 5 5 0 0 0 0 10zm46 0a5 5 0 1 0 0-10 5 5 0 0 0 0 10z"
        fill="#ff304f"
        fill-rule="evenodd">    
  </path>
</svg>